<?xml version="1.0" encoding="UTF-8" standalone="no"?>
<!-- Created with Inkscape (http://www.inkscape.org/) -->

<svg
   version="1.1"
   id="svg2"
   xml:space="preserve"
   width="755.90533"
   height="755.90533"
   viewBox="0 0 755.90533 755.90533"
   sodipodi:docname="افقي.ai"
   xmlns:inkscape="http://www.inkscape.org/namespaces/inkscape"
   xmlns:sodipodi="http://sodipodi.sourceforge.net/DTD/sodipodi-0.dtd"
   xmlns="http://www.w3.org/2000/svg"
   xmlns:svg="http://www.w3.org/2000/svg"><defs
     id="defs6"><clipPath
       clipPathUnits="userSpaceOnUse"
       id="clipPath16"><path
         d="M 0,566.929 H 566.929 V 0 H 0 Z"
         id="path14" /></clipPath></defs><sodipodi:namedview
     id="namedview4"
     pagecolor="#ffffff"
     bordercolor="#666666"
     borderopacity="1.0"
     inkscape:pageshadow="2"
     inkscape:pageopacity="0.0"
     inkscape:pagecheckerboard="0" /><g
     id="g8"
     inkscape:groupmode="layer"
     inkscape:label="افقي"
     transform="matrix(1.3333333,0,0,-1.3333333,0,755.90533)"><g
       id="g10"><g
         id="g12"
         clip-path="url(#clipPath16)"><g
           id="g18"
           transform="translate(95.479,243.9536)"><path
             d="m 0,0 -8.353,-1.543 c 0.363,1.663 0.545,3.057 0.545,4.177 0,7.202 -4.374,10.804 -13.12,10.804 -6.9,0 -10.35,-2.482 -10.35,-7.446 0,-3.722 3.859,-6.915 11.576,-9.578 14.89,-5.116 22.335,-12.682 22.335,-22.699 0,-5.871 -2.088,-10.585 -6.264,-14.142 -4.177,-3.556 -9.731,-5.333 -16.661,-5.333 -15.345,0 -23.017,5.947 -23.017,17.841 0,0.968 0.076,2.163 0.227,3.586 l 8.671,1.907 c -0.666,-2.633 -0.999,-4.919 -0.999,-6.855 0,-7.688 4.404,-11.532 13.211,-11.532 7.052,0 10.577,2.77 10.577,8.308 0,4.115 -4.221,7.734 -12.665,10.851 -12.197,4.478 -18.295,11.635 -18.295,21.472 0,5.569 2.035,10.056 6.105,13.461 4.071,3.405 9.421,5.107 16.048,5.107 C -6.809,18.386 0,12.258 0,0"
             style="fill:#08384f;fill-opacity:1;fill-rule:nonzero;stroke:none"
             id="path20" /></g><g
           id="g22"
           transform="translate(112.7759,218.9858)"><path
             d="M 0,0 H 15.208 L 7.899,27.465 Z M 21.382,42.31 38.633,-19.658 H 20.565 L 16.888,-6.22 H -1.771 L -5.72,-19.658 h -7.036 L 5.584,42.31 Z"
             style="fill:#08384f;fill-opacity:1;fill-rule:nonzero;stroke:none"
             id="path24" /></g><g
           id="g26"
           transform="translate(156.2646,199.3256)"><path
             d="m 0,0 h 20.717 v 5.129 h -2.74 v 51.708 h 2.74 v 5.129 L 0,61.966 Z m 28.375,61.878 v -6.543 c 1.422,-0.922 2.538,-2.283 3.337,-4.083 1.651,-3.715 2.476,-10.469 2.476,-20.242 0,-9.775 -0.834,-16.537 -2.502,-20.27 C 30.895,8.949 29.789,7.579 28.375,6.657 V 0.149 c 16.466,1.283 24.695,11.539 24.695,30.773 0,19.662 -8.229,29.981 -24.695,30.956"
             style="fill:#08384f;fill-opacity:1;fill-rule:nonzero;stroke:none"
             id="path28" /></g><g
           id="g30"
           transform="translate(262.5874,261.2953)"><path
             d="m 0,0 v -61.968 h -13.755 l -25.877,39.224 V -61.968 H -45.67 V 0 h 11.394 L -6.039,-42.355 V 0 Z"
             style="fill:#08384f;fill-opacity:1;fill-rule:nonzero;stroke:none"
             id="path32" /></g><g
           id="g34"
           transform="translate(279.7017,218.9858)"><path
             d="M 0,0 H 15.208 L 7.9,27.465 Z M 21.383,42.31 38.634,-19.658 H 20.566 L 16.888,-6.22 H -1.77 l -3.949,-13.438 h -7.037 L 5.584,42.31 Z"
             style="fill:#08384f;fill-opacity:1;fill-rule:nonzero;stroke:none"
             id="path36" /></g><g
           id="g38"
           transform="translate(341.124,230.1528)"><path
             d="M 0,0 V -30.825 H -17.978 V 31.143 H 0 V 6.219 H 14.664 V 31.143 H 32.642 V -53.658 H 14.664 l 0,53.658 z"
             style="fill:#08384f;fill-opacity:1;fill-rule:nonzero;stroke:none"
             id="path40" /></g><g
           id="g42"
           transform="translate(96.3301,305.9609)"><path
             d="m 0,0 c -0.278,-8.616 -1.39,-9.728 -8.616,-9.728 h -3.613 c -7.644,0 -12.647,5.559 -12.647,14.87 0,10.145 4.864,15.981 12.647,15.981 C -4.726,21.123 0,15.426 0.139,5.42 Z m 36.132,-9.728 c -13.202,0 -17.093,3.752 -17.093,18.622 v 19.565 c 0,5.312 -4.307,9.619 -9.62,9.619 -2.259,0 -4.303,-1.342 -5.202,-3.415 L 3.891,33.909 c -4.725,2.64 -10.145,4.169 -16.12,4.169 -18.483,0 -31.546,-13.62 -31.546,-32.936 0,-19.734 13.063,-33.769 31.546,-33.769 h 6.67 c 7.504,0.278 12.924,1.668 16.815,4.446 5.42,-3.335 13.48,-4.446 24.876,-4.446 h 1.667 v 18.899 z"
             style="fill:#08384f;fill-opacity:1;fill-rule:nonzero;stroke:none"
             id="path44" /></g><g
           id="g46"
           transform="translate(153.7236,363.7724)"><path
             d="m 0,0 c 0,5.002 4.03,9.171 9.171,9.171 5.142,0 9.173,-4.307 9.173,-9.171 0,-5.142 -4.031,-9.451 -9.173,-9.451 C 4.03,-9.451 0,-5.281 0,0 m -20.29,-67.54 h 2.918 c 13.342,0 16.816,3.614 17.233,18.623 v 19.803 c 0,5.181 4.2,9.381 9.381,9.381 5.18,0 9.38,-4.2 9.38,-9.381 v -19.803 c -0.417,-30.156 -7.504,-37.522 -35.994,-37.522 h -2.918 z"
             style="fill:#08384f;fill-opacity:1;fill-rule:nonzero;stroke:none"
             id="path48" /></g><g
           id="g50"
           transform="translate(198.4829,296.2328)"><path
             d="M 0,0 H 30.838 V 12.924 C 30.56,21.68 22.778,28.906 13.467,28.906 h -0.129 c -5.073,0 -9.182,4.112 -9.182,9.185 v 0.53 c 0,5.072 4.108,9.185 9.18,9.185 h 0.131 c 19.455,0 35.715,-15.287 36.27,-34.187 V 0 H 66.553 V -18.899 H 0 c -5.073,0 -9.186,4.112 -9.186,9.185 v 0.529 C -9.186,-4.112 -5.073,0 0,0"
             style="fill:#08384f;fill-opacity:1;fill-rule:nonzero;stroke:none"
             id="path52" /></g><g
           id="g54"
           transform="translate(264.3403,296.2328)"><path
             d="m 0,0 h 2.362 c 13.202,0 16.677,3.613 17.094,18.622 v 19.04 c 0,5.219 4.231,9.45 9.45,9.45 5.219,0 9.45,-4.231 9.45,-9.45 V 18.622 C 38.239,12.29 37.824,6.947 37.03,2.426 36.807,1.161 37.765,0 39.05,0 52.252,0 55.727,3.613 56.144,18.622 v 19.812 c 0,5.219 4.231,9.45 9.449,9.45 5.219,0 9.45,-4.231 9.45,-9.45 V 18.622 C 74.923,12.161 74.495,6.729 73.668,2.15 73.465,1.028 74.32,0 75.46,0 88.662,0 92.136,3.613 92.553,18.622 v 19.734 c 0,5.219 4.232,9.45 9.45,9.45 5.219,0 9.45,-4.231 9.45,-9.45 V 18.622 c -0.417,-30.156 -7.504,-37.521 -35.993,-37.521 h -2.275 c -3.519,0 -6.71,2.068 -8.147,5.28 -5.42,-3.891 -13.758,-5.28 -25.988,-5.28 h -2.147 c -3.591,0 -6.841,2.128 -8.276,5.42 -5.558,-4.031 -13.897,-5.42 -26.265,-5.42 l -2.362,0 z"
             style="fill:#08384f;fill-opacity:1;fill-rule:nonzero;stroke:none"
             id="path56" /></g><g
           id="g58"
           transform="translate(77.3975,355.8002)"><path
             d="m 0,0 c 0,-5.818 -4.717,-10.535 -10.536,-10.535 -5.818,0 -10.535,4.717 -10.535,10.535 0,5.819 4.717,10.536 10.535,10.536 C -4.717,10.536 0,5.819 0,0"
             style="fill:#08384f;fill-opacity:1;fill-rule:nonzero;stroke:none"
             id="path60" /></g><g
           id="g62"
           transform="translate(77.3975,381.8989)"><path
             d="m 0,0 c 0,-5.818 -4.717,-10.536 -10.536,-10.536 -5.818,0 -10.535,4.718 -10.535,10.536 0,5.819 4.717,10.536 10.535,10.536 C -4.717,10.536 0,5.819 0,0"
             style="fill:#08384f;fill-opacity:1;fill-rule:nonzero;stroke:none"
             id="path64" /></g><g
           id="g66"
           transform="translate(514.7588,292.4662)"><path
             d="m 0,0 v 16.974 c 0,2.862 -1.541,5.504 -4.032,6.913 l -46.97,26.562 c -5.562,3.146 -12.37,3.132 -17.92,-0.037 l -27.82,-15.886 c -3.585,-2.047 -3.703,-7.175 -0.216,-9.385 L -78.25,13.287 c 1.764,-1.118 4.011,-1.136 5.792,-0.046 l 3.287,2.012 c 5.669,3.469 12.781,3.559 18.536,0.235 L -11.914,-6.877 C -6.619,-9.936 0,-6.114 0,0"
             style="fill:#f3975d;fill-opacity:1;fill-rule:nonzero;stroke:none"
             id="path68" /></g><g
           id="g70"
           transform="translate(394.749,302.5781)"><path
             d="m 0,0 v -13.484 c 0,-6.434 3.409,-12.387 8.958,-15.644 l 101.616,-59.645 c 4.177,-2.451 9.436,0.561 9.436,5.402 v 15.325 c 0,6.521 -3.502,12.542 -9.171,15.766 L 9.362,5.445 C 5.186,7.82 0,4.804 0,0"
             style="fill:#f3975d;fill-opacity:1;fill-rule:nonzero;stroke:none"
             id="path72" /></g><g
           id="g74"
           transform="translate(394.749,231.1235)"><path
             d="m 0,0 v -18.28 c 0,-2.832 1.509,-5.45 3.959,-6.871 L 50.59,-52.184 c 5.795,-3.359 12.97,-3.25 18.661,0.284 l 27.543,17.101 c 3.468,2.153 3.447,7.206 -0.037,9.331 l -18.73,11.426 c -1.648,1.006 -3.705,1.068 -5.412,0.167 l -3.807,-2.012 c -5.483,-2.896 -12.065,-2.791 -17.453,0.281 L 11.875,6.899 C 6.581,9.917 0,6.094 0,0"
             style="fill:#f3975d;fill-opacity:1;fill-rule:nonzero;stroke:none"
             id="path76" /></g></g></g></g></svg>
