<?xml version="1.0" encoding="UTF-8" standalone="no"?>
<!-- Created with Inkscape (http://www.inkscape.org/) -->

<svg
   version="1.1"
   id="svg2"
   xml:space="preserve"
   width="755.90533"
   height="755.90533"
   viewBox="0 0 755.90533 755.90533"
   sodipodi:docname="رأسي.ai"
   xmlns:inkscape="http://www.inkscape.org/namespaces/inkscape"
   xmlns:sodipodi="http://sodipodi.sourceforge.net/DTD/sodipodi-0.dtd"
   xmlns="http://www.w3.org/2000/svg"
   xmlns:svg="http://www.w3.org/2000/svg"><defs
     id="defs6"><clipPath
       clipPathUnits="userSpaceOnUse"
       id="clipPath16"><path
         d="M 0,566.929 H 566.929 V 0 H 0 Z"
         id="path14" /></clipPath></defs><sodipodi:namedview
     id="namedview4"
     pagecolor="#ffffff"
     bordercolor="#666666"
     borderopacity="1.0"
     inkscape:pageshadow="2"
     inkscape:pageopacity="0.0"
     inkscape:pagecheckerboard="0" /><g
     id="g8"
     inkscape:groupmode="layer"
     inkscape:label="رأسي"
     transform="matrix(1.3333333,0,0,-1.3333333,0,755.90533)"><g
       id="g10"><g
         id="g12"
         clip-path="url(#clipPath16)"><g
           id="g18"
           transform="translate(161.4463,154.8627)"><path
             d="m 0,0 -8.601,-1.589 c 0.374,1.714 0.561,3.148 0.561,4.301 0,7.416 -4.503,11.125 -13.509,11.125 -7.105,0 -10.658,-2.556 -10.658,-7.666 0,-3.833 3.974,-7.121 11.92,-9.863 15.332,-5.267 22.998,-13.058 22.998,-23.372 0,-6.046 -2.15,-10.9 -6.45,-14.562 -4.301,-3.661 -10.019,-5.491 -17.156,-5.491 -15.799,0 -23.699,6.123 -23.699,18.37 0,0.997 0.078,2.227 0.234,3.693 l 8.928,1.963 c -0.686,-2.711 -1.028,-5.064 -1.028,-7.058 0,-7.916 4.534,-11.873 13.603,-11.873 7.26,0 10.891,2.85 10.891,8.553 0,4.239 -4.347,7.963 -13.042,11.173 -12.558,4.611 -18.838,11.982 -18.838,22.109 0,5.734 2.096,10.355 6.287,13.861 4.191,3.505 9.7,5.258 16.524,5.258 C -7.011,18.932 0,12.622 0,0"
             style="fill:#08384f;fill-opacity:1;fill-rule:nonzero;stroke:none"
             id="path20" /></g><g
           id="g22"
           transform="translate(179.2563,129.1547)"><path
             d="M 0,0 H 15.659 L 8.133,28.279 Z M 22.017,43.564 39.779,-20.241 H 21.175 L 17.389,-6.404 H -1.823 L -5.89,-20.241 h -7.245 L 5.75,43.564 Z"
             style="fill:#08384f;fill-opacity:1;fill-rule:nonzero;stroke:none"
             id="path24" /></g><g
           id="g26"
           transform="translate(224.0352,108.9116)"><path
             d="M 0,0 H 21.332 V 5.28 H 18.51 v 53.243 h 2.822 v 5.281 H 0 Z m 29.216,63.714 v -6.737 c 1.465,-0.95 2.614,-2.351 3.437,-4.205 1.7,-3.825 2.55,-10.779 2.55,-20.843 0,-10.065 -0.859,-17.027 -2.578,-20.87 C 31.812,9.214 30.672,7.804 29.216,6.854 V 0.153 c 16.955,1.321 25.428,11.882 25.428,31.686 0,20.246 -8.473,30.871 -25.428,31.875"
             style="fill:#08384f;fill-opacity:1;fill-rule:nonzero;stroke:none"
             id="path28" /></g><g
           id="g30"
           transform="translate(333.5117,172.7192)"><path
             d="m 0,0 v -63.806 h -14.163 l -26.645,40.387 v -40.387 h -6.216 V 0 h 11.732 L -6.218,-43.611 V 0 Z"
             style="fill:#08384f;fill-opacity:1;fill-rule:nonzero;stroke:none"
             id="path32" /></g><g
           id="g34"
           transform="translate(351.1338,129.1547)"><path
             d="M 0,0 H 15.659 L 8.134,28.279 Z M 22.018,43.564 39.78,-20.241 H 21.176 L 17.39,-6.404 H -1.822 l -4.067,-13.837 h -7.246 L 5.75,43.564 Z"
             style="fill:#08384f;fill-opacity:1;fill-rule:nonzero;stroke:none"
             id="path36" /></g><g
           id="g38"
           transform="translate(414.3789,140.6528)"><path
             d="M 0,0 V -31.739 H -18.511 V 32.066 H 0 V 6.404 h 15.099 v 25.662 h 18.51 V -55.25 H 15.099 V 0 Z"
             style="fill:#08384f;fill-opacity:1;fill-rule:nonzero;stroke:none"
             id="path40" /></g><g
           id="g42"
           transform="translate(162.3223,218.7104)"><path
             d="m 0,0 c -0.287,-8.872 -1.431,-10.017 -8.872,-10.017 h -3.72 c -7.87,0 -13.022,5.724 -13.022,15.311 0,10.446 5.009,16.456 13.022,16.456 C -4.865,21.75 0,15.883 0.143,5.581 Z m 37.204,-10.017 c -13.594,0 -17.6,3.864 -17.6,19.174 v 20.146 c 0,5.47 -4.435,9.904 -9.905,9.904 -2.326,0 -4.431,-1.382 -5.356,-3.517 L 4.006,34.914 c -4.864,2.719 -10.445,4.293 -16.598,4.293 -19.032,0 -32.482,-14.023 -32.482,-33.913 0,-20.318 13.45,-34.771 32.482,-34.771 h 6.868 c 7.727,0.287 13.308,1.717 17.314,4.579 5.581,-3.435 13.88,-4.579 25.614,-4.579 h 1.717 v 19.46 z"
             style="fill:#08384f;fill-opacity:1;fill-rule:nonzero;stroke:none"
             id="path44" /></g><g
           id="g46"
           transform="translate(221.4189,278.2368)"><path
             d="m 0,0 c 0,5.15 4.149,9.443 9.443,9.443 5.295,0 9.445,-4.435 9.445,-9.443 0,-5.295 -4.15,-9.731 -9.445,-9.731 C 4.149,-9.731 0,-5.438 0,0 m -20.892,-69.543 h 3.005 c 13.737,0 17.315,3.721 17.744,19.174 v 20.391 c 0,5.334 4.324,9.659 9.659,9.659 5.334,0 9.658,-4.325 9.658,-9.659 v -20.391 c -0.429,-31.05 -7.727,-38.634 -37.061,-38.634 h -3.005 z"
             style="fill:#08384f;fill-opacity:1;fill-rule:nonzero;stroke:none"
             id="path48" /></g><g
           id="g50"
           transform="translate(267.5054,208.6938)"><path
             d="m 0,0 h 31.753 v 13.308 c -0.287,9.014 -8.299,16.455 -17.886,16.455 h -0.133 c -5.223,0 -9.454,4.234 -9.454,9.458 v 0.546 c 0,5.222 4.229,9.457 9.452,9.457 h 0.135 c 20.032,0 36.774,-15.741 37.346,-35.202 V 0 H 68.528 V -19.46 H 0 c -5.223,0 -9.458,4.234 -9.458,9.457 v 0.545 C -9.458,-4.234 -5.223,0 0,0"
             style="fill:#08384f;fill-opacity:1;fill-rule:nonzero;stroke:none"
             id="path52" /></g><g
           id="g54"
           transform="translate(335.3174,208.6938)"><path
             d="m 0,0 h 2.433 c 13.592,0 17.171,3.721 17.6,19.174 v 19.604 c 0,5.374 4.356,9.731 9.73,9.731 5.374,0 9.73,-4.357 9.73,-9.731 V 19.174 C 39.372,12.654 38.945,7.152 38.128,2.498 37.898,1.195 38.885,0 40.208,0 53.803,0 57.379,3.721 57.809,19.174 v 20.4 c 0,5.373 4.356,9.73 9.73,9.73 5.373,0 9.73,-4.357 9.73,-9.73 v -20.4 C 77.146,12.521 76.704,6.929 75.854,2.214 75.645,1.059 76.524,0 77.698,0 91.292,0 94.869,3.721 95.299,19.174 v 20.32 c 0,5.373 4.356,9.73 9.73,9.73 5.373,0 9.73,-4.357 9.73,-9.73 V 19.174 C 114.33,-11.876 107.032,-19.46 77.698,-19.46 h -2.343 c -3.624,0 -6.909,2.129 -8.388,5.437 -5.581,-4.006 -14.166,-5.437 -26.759,-5.437 h -2.211 c -3.697,0 -7.043,2.191 -8.52,5.58 -5.724,-4.149 -14.31,-5.58 -27.044,-5.58 H 0 Z"
             style="fill:#08384f;fill-opacity:1;fill-rule:nonzero;stroke:none"
             id="path56" /></g><g
           id="g58"
           transform="translate(142.8281,270.0278)"><path
             d="m 0,0 c 0,-5.991 -4.857,-10.848 -10.848,-10.848 -5.991,0 -10.848,4.857 -10.848,10.848 0,5.991 4.857,10.849 10.848,10.849 C -4.857,10.849 0,5.991 0,0"
             style="fill:#08384f;fill-opacity:1;fill-rule:nonzero;stroke:none"
             id="path60" /></g><g
           id="g62"
           transform="translate(142.8281,296.9008)"><path
             d="m 0,0 c 0,-5.991 -4.857,-10.848 -10.848,-10.848 -5.991,0 -10.848,4.857 -10.848,10.848 0,5.991 4.857,10.848 10.848,10.848 C -4.857,10.848 0,5.991 0,0"
             style="fill:#08384f;fill-opacity:1;fill-rule:nonzero;stroke:none"
             id="path64" /></g><g
           id="g66"
           transform="translate(345.249,427.1611)"><path
             d="m 0,0 v 17.478 c 0,2.947 -1.586,5.667 -4.151,7.118 l -48.364,27.35 c -5.727,3.239 -12.737,3.224 -18.451,-0.038 L -99.612,35.55 c -3.692,-2.108 -3.813,-7.387 -0.222,-9.663 l 19.263,-12.206 c 1.817,-1.151 4.129,-1.169 5.964,-0.047 l 3.385,2.072 c 5.837,3.571 13.159,3.665 19.085,0.242 L -12.268,-7.081 C -6.815,-10.23 0,-6.295 0,0"
             style="fill:#f3975d;fill-opacity:1;fill-rule:nonzero;stroke:none"
             id="path68" /></g><g
           id="g70"
           transform="translate(221.6797,437.5727)"><path
             d="m 0,0 v -13.884 c 0,-6.625 3.51,-12.754 9.223,-16.108 l 104.631,-61.414 c 4.3,-2.524 9.715,0.577 9.715,5.563 v 15.778 c 0,6.715 -3.605,12.914 -9.442,16.234 L 9.639,5.606 C 5.339,8.052 0,4.947 0,0"
             style="fill:#f3975d;fill-opacity:1;fill-rule:nonzero;stroke:none"
             id="path72" /></g><g
           id="g74"
           transform="translate(221.6797,363.9985)"><path
             d="m 0,0 v -18.822 c 0,-2.917 1.553,-5.613 4.076,-7.075 L 52.09,-53.731 c 5.967,-3.459 13.355,-3.348 19.215,0.291 l 28.36,17.609 c 3.57,2.217 3.55,7.419 -0.038,9.608 l -19.285,11.765 c -1.697,1.035 -3.815,1.1 -5.573,0.171 l -3.92,-2.071 c -5.646,-2.982 -12.423,-2.873 -17.97,0.289 L 12.227,7.104 C 6.776,10.211 0,6.275 0,0"
             style="fill:#f3975d;fill-opacity:1;fill-rule:nonzero;stroke:none"
             id="path76" /></g></g></g></g></svg>
